<?xml version="1.0" encoding="UTF-8"?>
<svg width="300" height="300" viewBox="0 0 300 300" fill="none" xmlns="http://www.w3.org/2000/svg">
  <rect width="300" height="300" fill="#282828"/>
  <path d="M150 100C128.909 100 112 116.909 112 138C112 159.091 128.909 176 150 176C171.091 176 188 159.091 188 138C188 116.909 171.091 100 150 100ZM150 164C135.536 164 124 152.464 124 138C124 123.536 135.536 112 150 112C164.464 112 176 123.536 176 138C176 152.464 164.464 164 150 164Z" fill="#B3B3B3"/>
  <path d="M150 120C142.268 120 136 126.268 136 134C136 141.732 142.268 148 150 148C157.732 148 164 141.732 164 134C164 126.268 157.732 120 150 120ZM150 144C144.477 144 140 139.523 140 134C140 128.477 144.477 124 150 124C155.523 124 160 128.477 160 134C160 139.523 155.523 144 150 144Z" fill="#B3B3B3"/>
  <path d="M150 132C147.791 132 146 133.791 146 136C146 138.209 147.791 140 150 140C152.209 140 154 138.209 154 136C154 133.791 152.209 132 150 132Z" fill="#B3B3B3"/>
</svg> 